<svg xmlns="http://www.w3.org/2000/svg" viewBox="0 0 512 512" width="512" height="512" role="img" aria-label="chz_ex logo">
  <defs>
    <path id="hexPath" d="M256 36 L446.5 146 L446.5 366 L256 476 L65.5 366 L65.5 146 Z"/>
    <clipPath id="hexClip">
      <use href="#hexPath"/>
    </clipPath>

    <linearGradient id="hexFill" x1="0" y1="0" x2="1" y2="1">
      <stop offset="0" stop-color="#0b1b2b"/>
      <stop offset="0.55" stop-color="#113249"/>
      <stop offset="1" stop-color="#0a2f3f"/>
    </linearGradient>
    <linearGradient id="hexStroke" x1="0" y1="0" x2="1" y2="1">
      <stop offset="0" stop-color="#1ad1c2"/>
      <stop offset="1" stop-color="#38bdf8"/>
    </linearGradient>
    <linearGradient id="bgGrad" x1="0" y1="0" x2="0" y2="1">
      <stop offset="0" stop-color="#0f2235"/>
      <stop offset="1" stop-color="#0b1a2b"/>
    </linearGradient>
    <radialGradient id="spotlight" cx="0.3" cy="0.2" r="0.85">
      <stop offset="0" stop-color="#1d4f63" stop-opacity="0.55"/>
      <stop offset="0.5" stop-color="#103246" stop-opacity="0.2"/>
      <stop offset="1" stop-color="#0b1a2b" stop-opacity="0"/>
    </radialGradient>

    <linearGradient id="boxTop" x1="0" y1="0" x2="1" y2="1">
      <stop offset="0" stop-color="#f4e5c9"/>
      <stop offset="1" stop-color="#cfa576"/>
    </linearGradient>
    <linearGradient id="boxFront" x1="0" y1="0" x2="0" y2="1">
      <stop offset="0" stop-color="#e2c29d"/>
      <stop offset="1" stop-color="#b48657"/>
    </linearGradient>
    <linearGradient id="boxSide" x1="0" y1="0" x2="0" y2="1">
      <stop offset="0" stop-color="#cf9b6b"/>
      <stop offset="1" stop-color="#9a6b3e"/>
    </linearGradient>

    <linearGradient id="stickWood" x1="0" y1="0" x2="0" y2="1">
      <stop offset="0" stop-color="#c48745"/>
      <stop offset="1" stop-color="#70401b"/>
    </linearGradient>

    <linearGradient id="cheeseGrad" x1="0" y1="0" x2="1" y2="1">
      <stop offset="0" stop-color="#ffe16a"/>
      <stop offset="1" stop-color="#f2a62a"/>
    </linearGradient>
    <linearGradient id="cheeseHighlight" x1="0" y1="0" x2="1" y2="1">
      <stop offset="0" stop-color="#fff1a6" stop-opacity="0.8"/>
      <stop offset="1" stop-color="#f7c84c" stop-opacity="0"/>
    </linearGradient>

    <linearGradient id="shadowGrad" x1="0" y1="0" x2="1" y2="0">
      <stop offset="0" stop-color="#000000" stop-opacity="0"/>
      <stop offset="0.5" stop-color="#000000" stop-opacity="0.35"/>
      <stop offset="1" stop-color="#000000" stop-opacity="0"/>
    </linearGradient>

    <filter id="hexShadow" x="-20%" y="-20%" width="140%" height="140%">
      <feOffset dx="0" dy="8" in="SourceAlpha" result="offset"/>
      <feGaussianBlur in="offset" stdDeviation="12" result="blur"/>
      <feColorMatrix in="blur" type="matrix"
        values="0 0 0 0 0
                0 0 0 0 0
                0 0 0 0 0
                0 0 0 0.35 0"/>
      <feBlend in="SourceGraphic" mode="normal"/>
    </filter>

    <filter id="innerShadow" x="-20%" y="-20%" width="140%" height="140%">
      <feOffset dx="0" dy="2" in="SourceAlpha" result="off"/>
      <feGaussianBlur in="off" stdDeviation="4" result="blur"/>
      <feComposite in="blur" in2="SourceAlpha" operator="out" result="cut"/>
      <feColorMatrix in="cut" type="matrix"
        values="0 0 0 0 0
                0 0 0 0 0
                0 0 0 0 0
                0 0 0 0.45 0" result="shadow"/>
      <feComposite in="shadow" in2="SourceGraphic" operator="over"/>
    </filter>

    <filter id="boxShadow" x="-30%" y="-30%" width="160%" height="180%">
      <feOffset dx="0" dy="14" in="SourceAlpha" result="offset"/>
      <feGaussianBlur in="offset" stdDeviation="14" result="blur"/>
      <feColorMatrix in="blur" type="matrix"
        values="0 0 0 0 0
                0 0 0 0 0
                0 0 0 0 0
                0 0 0 0.35 0"/>
      <feBlend in="SourceGraphic" mode="normal"/>
    </filter>

    <filter id="cheeseShadow" x="-30%" y="-30%" width="160%" height="160%">
      <feOffset dx="0" dy="6" in="SourceAlpha" result="offset"/>
      <feGaussianBlur in="offset" stdDeviation="6" result="blur"/>
      <feColorMatrix in="blur" type="matrix"
        values="0 0 0 0 0
                0 0 0 0 0
                0 0 0 0 0
                0 0 0 0.35 0"/>
      <feBlend in="SourceGraphic" mode="normal"/>
    </filter>

    <filter id="grain" x="-20%" y="-20%" width="140%" height="140%">
      <feTurbulence type="fractalNoise" baseFrequency="0.9" numOctaves="2" seed="3" result="noise"/>
      <feColorMatrix in="noise" type="saturate" values="0"/>
      <feComponentTransfer>
        <feFuncA type="table" tableValues="0 0.08"/>
      </feComponentTransfer>
    </filter>

    <mask id="cheeseMask">
      <rect width="512" height="512" fill="black"/>
      <g transform="translate(0 -10)">
        <path d="M190 365 L310 345 Q342 340 352 360 L300 420 L180 400 Z" fill="white"/>
        <circle cx="250" cy="372" r="10" fill="black"/>
        <circle cx="285" cy="392" r="7" fill="black"/>
        <circle cx="220" cy="390" r="6" fill="black"/>
      </g>
    </mask>
  </defs>

  <use href="#hexPath" fill="url(#hexFill)" filter="url(#hexShadow)"/>

  <g clip-path="url(#hexClip)">
    <rect x="0" y="0" width="512" height="512" fill="url(#bgGrad)"/>
    <rect x="0" y="0" width="512" height="512" fill="url(#spotlight)"/>
    <rect x="0" y="0" width="512" height="512" filter="url(#grain)" opacity="0.6"/>

    <ellipse cx="270" cy="370" rx="180" ry="40" fill="url(#shadowGrad)" opacity="0.7"/>

    <g transform="translate(0 -10)">
      <g filter="url(#boxShadow)" transform="rotate(-6 270 260) translate(-10 0)">
        <polygon points="160,150 320,120 420,210 260,240" fill="url(#boxTop)"/>
        <polygon points="160,150 260,240 260,340 160,250" fill="url(#boxFront)"/>
        <polygon points="260,240 420,210 420,310 260,340" fill="url(#boxSide)"/>
        <polyline points="160,150 320,120 420,210 260,240 160,150" fill="none" stroke="#6d4b2f" stroke-width="2" stroke-linejoin="round" opacity="0.6"/>
        <polyline points="160,150 260,240 260,340 160,250 160,150" fill="none" stroke="#6d4b2f" stroke-width="2" stroke-linejoin="round" opacity="0.5"/>
        <polyline points="260,240 420,210 420,310 260,340 260,240" fill="none" stroke="#6d4b2f" stroke-width="2" stroke-linejoin="round" opacity="0.5"/>
        <path d="M185 182 L310 150" stroke="#fff2d3" stroke-width="4" stroke-linecap="round" opacity="0.35"/>
      </g>

      <rect x="198" y="270" width="14" height="130" rx="7" fill="url(#stickWood)" stroke="#5a3517" stroke-width="1.5" transform="rotate(20 198 270)"/>

      <g filter="url(#cheeseShadow)">
        <path d="M190 365 L310 345 Q342 340 352 360 L300 420 L180 400 Z" fill="url(#cheeseGrad)" mask="url(#cheeseMask)"/>
        <path d="M200 370 L280 355" stroke="url(#cheeseHighlight)" stroke-width="10" stroke-linecap="round" opacity="0.5"/>
      </g>
    </g>
  </g>

  <use href="#hexPath" fill="none" stroke="url(#hexStroke)" stroke-width="6"/>
  <path d="M256 56 L424 154 L424 358 L256 456 L88 358 L88 154 Z" fill="none" stroke="#0ed3c6" stroke-width="2" opacity="0.6" filter="url(#innerShadow)"/>
</svg>
